<?xml version="1.0" standalone="no"?>
<svg version="1.0" xmlns="http://www.w3.org/2000/svg"
 width="1920.000000pt" height="1920.000000pt" viewBox="0 0 1920.000000 1920.000000"
 preserveAspectRatio="xMidYMid meet">

<g transform="translate(0.000000,1920.000000) scale(0.100000,-0.100000)"
fill="#212332" stroke="none">
<path d="M9280 19109 c-806 -60 -1561 -336 -2210 -808 -344 -249 -692 -597
-941 -941 -749 -1030 -1000 -2335 -687 -3565 192 -758 567 -1415 1122 -1971
699 -699 1555 -1109 2566 -1231 204 -24 706 -24 910 0 780 94 1451 353 2060
796 344 249 692 597 941 941 1091 1502 1091 3528 0 5030 -249 344 -597 692
-941 941 -742 540 -1629 825 -2540 818 -96 -1 -222 -5 -280 -10z m560 -1330
c584 -53 1131 -272 1585 -634 128 -102 358 -332 460 -460 328 -411 539 -899
617 -1429 19 -126 22 -194 22 -411 0 -296 -17 -452 -78 -701 -101 -407 -300
-812 -561 -1139 -102 -128 -332 -358 -460 -460 -319 -255 -724 -456 -1116
-555 -460 -116 -967 -118 -1425 -6 -407 101 -812 300 -1139 561 -128 102 -358
332 -460 460 -328 411 -539 898 -617 1429 -32 217 -32 603 0 822 78 529 289
1018 617 1429 102 128 332 358 460 460 447 357 1002 581 1570 634 132 12 393
12 525 0z"/>
<path d="M3190 15784 c-81 -17 -209 -80 -275 -134 -113 -94 -202 -240 -231
-380 -25 -119 -11 -551 32 -930 133 -1196 608 -2388 1337 -3355 1033 -1371
2509 -2303 4178 -2639 193 -39 543 -91 682 -102 l87 -7 0 -1748 0 -1749 -1612
-2 -1613 -3 -74 -27 c-173 -63 -306 -199 -362 -370 -34 -104 -34 -262 0 -366
56 -171 189 -307 362 -370 l74 -27 1613 -3 1612 -2 0 -1484 c0 -1444 1 -1485
20 -1560 11 -43 34 -105 52 -139 42 -80 155 -193 235 -235 132 -70 293 -89
437 -52 110 28 190 74 271 155 81 81 127 161 155 271 19 75 20 116 20 1560 l0
1484 1603 2 1602 3 74 27 c334 122 483 492 329 817 -43 92 -168 216 -261 260
-133 64 -49 61 -1774 61 l-1573 0 0 1749 0 1748 93 7 c138 10 487 62 686 102
2824 568 5009 2835 5470 5674 54 330 78 594 87 945 7 269 -2 332 -65 460 -70
140 -165 236 -306 306 -326 162 -726 24 -885 -306 -53 -109 -68 -199 -74 -450
-21 -797 -205 -1552 -556 -2271 -213 -438 -445 -796 -756 -1169 -129 -155
-405 -439 -559 -575 -1039 -921 -2348 -1420 -3725 -1420 -1112 0 -2167 319
-3098 937 -521 346 -1007 805 -1384 1308 -338 449 -629 996 -813 1525 -181
522 -286 1103 -301 1665 -6 251 -21 341 -74 450 -132 274 -441 424 -740 359z"/>
</g>
</svg>
