<?xml version="1.0" standalone="no"?>
<svg version="1.0" xmlns="http://www.w3.org/2000/svg"
 width="1920.000000pt" height="1920.000000pt" viewBox="0 0 1920.000000 1920.000000"
 preserveAspectRatio="xMidYMid meet">

<g transform="translate(0.000000,1920.000000) scale(0.100000,-0.100000)"
fill="#212332" stroke="none">
<path d="M9325 17334 c-581 -42 -961 -115 -1435 -273 -1342 -451 -2448 -1408
-3085 -2672 -473 -938 -658 -1977 -539 -3029 201 -1784 1303 -3363 2915 -4175
514 -259 1065 -434 1619 -515 80 -11 160 -23 178 -26 l32 -5 0 -974 0 -974
-662 -3 -663 -3 -74 -27 c-173 -63 -306 -199 -362 -370 -34 -104 -34 -262 0
-366 56 -171 189 -307 362 -370 l74 -27 663 -3 662 -3 0 -733 c0 -697 1 -737
20 -810 11 -43 34 -105 52 -139 42 -80 155 -193 235 -235 132 -70 293 -89 437
-52 110 28 190 74 271 155 81 81 127 161 155 271 19 73 20 113 20 810 l0 733
653 3 652 3 74 27 c334 122 483 492 329 817 -43 92 -168 216 -261 260 -125 60
-140 61 -825 61 l-622 0 2 977 3 976 159 23 c1280 184 2460 833 3305 1819
1408 1643 1691 3971 716 5904 -251 499 -557 927 -950 1329 -603 618 -1320
1069 -2135 1343 -400 134 -753 209 -1190 254 -145 15 -667 28 -785 19z m720
-1348 c962 -117 1793 -526 2450 -1207 631 -654 997 -1430 1112 -2359 25 -204
25 -686 0 -890 -115 -929 -481 -1705 -1112 -2359 -659 -682 -1483 -1088 -2455
-1208 -203 -25 -685 -25 -890 0 -964 117 -1797 527 -2455 1208 -630 653 -1001
1439 -1112 2359 -25 203 -25 687 0 890 103 850 429 1588 977 2213 697 795
1650 1274 2715 1366 158 14 614 6 770 -13z"/>
</g>
</svg>
