<?xml version="1.0" standalone="no"?>
<svg version="1.0" xmlns="http://www.w3.org/2000/svg"
 width="1920.000000pt" height="1920.000000pt" viewBox="0 0 1920.000000 1920.000000"
 preserveAspectRatio="xMidYMid meet">

<g transform="translate(0.000000,1920.000000) scale(0.100000,-0.100000)"
fill="#212332" stroke="none">
<path d="M9462 17480 c-106 -28 -187 -75 -267 -155 -81 -81 -127 -161 -155
-271 -19 -73 -20 -113 -20 -810 l0 -733 -662 -3 -663 -3 -74 -27 c-173 -63
-306 -199 -362 -370 -34 -104 -34 -262 0 -366 56 -171 189 -307 362 -370 l74
-27 663 -3 662 -3 0 -974 0 -974 -32 -5 c-18 -3 -98 -15 -178 -26 -896 -130
-1776 -508 -2504 -1074 -348 -271 -713 -641 -977 -991 -1238 -1639 -1436
-3825 -513 -5656 788 -1564 2292 -2645 4026 -2893 293 -42 417 -51 763 -51
345 0 462 8 763 51 1005 142 1954 572 2727 1235 1875 1607 2411 4285 1300
6488 -403 800 -998 1483 -1737 1997 -677 470 -1467 780 -2284 898 l-159 23 -3
976 -2 976 652 3 653 3 74 27 c334 122 483 492 329 817 -43 92 -168 216 -261
260 -125 60 -140 61 -824 61 l-623 0 0 733 c0 698 -1 738 -20 811 -11 43 -34
105 -52 139 -42 80 -155 193 -235 235 -132 70 -298 89 -441 52z m593 -6414
c962 -117 1793 -526 2450 -1207 631 -654 997 -1430 1112 -2359 25 -204 25
-686 0 -890 -115 -929 -481 -1705 -1112 -2359 -659 -682 -1483 -1088 -2455
-1208 -203 -25 -685 -25 -890 0 -964 117 -1797 527 -2455 1208 -630 653 -1001
1439 -1112 2359 -25 203 -25 687 0 890 103 850 429 1588 977 2213 697 795
1650 1274 2715 1366 158 14 614 6 770 -13z"/>
</g>
</svg>
