<?xml version="1.0" standalone="no"?>
<svg version="1.0" xmlns="http://www.w3.org/2000/svg"
 width="1920.000000pt" height="1920.000000pt" viewBox="0 0 1920.000000 1920.000000"
 preserveAspectRatio="xMidYMid meet">

<g transform="translate(0.000000,1920.000000) scale(0.100000,-0.100000)"
fill="#212332" stroke="none">
<path d="M10630 18004 c-180 -38 -495 -258 -785 -549 -172 -172 -272 -293
-400 -485 -435 -653 -630 -1424 -520 -2053 74 -421 246 -748 590 -1121 247
-269 294 -334 343 -468 45 -128 57 -206 57 -378 -1 -157 -11 -240 -46 -385
-121 -494 -377 -879 -773 -1159 -180 -128 -275 -257 -317 -432 -37 -153 -17
-313 57 -454 67 -129 165 -224 299 -291 108 -53 204 -73 325 -65 151 9 234 40
390 147 570 390 1000 967 1225 1642 248 747 231 1444 -50 2022 -108 222 -229
391 -472 657 -175 191 -207 231 -247 308 -59 111 -80 205 -79 355 0 147 20
259 77 430 149 445 400 780 775 1034 68 46 144 108 183 150 298 315 207 831
-183 1036 -129 68 -303 91 -449 59z"/>
<path d="M11570 10134 c-107 -23 -221 -85 -304 -167 -65 -64 -152 -193 -786
-1177 -392 -608 -716 -1108 -720 -1113 -3 -4 -335 485 -738 1086 -402 602
-752 1117 -777 1145 -106 118 -281 199 -449 209 -120 7 -215 -14 -332 -72
-318 -156 -452 -542 -301 -860 19 -38 475 -729 1014 -1535 539 -806 992 -1488
1007 -1516 62 -116 163 -211 291 -275 223 -110 466 -87 681 66 79 57 140 126
195 223 23 43 464 730 979 1527 515 798 946 1466 957 1485 70 115 98 303 69
450 -42 209 -170 376 -361 471 -133 66 -281 84 -425 53z"/>
<path d="M3215 8875 c-234 -52 -411 -211 -491 -440 -25 -71 -28 -94 -28 -205
0 -111 3 -134 28 -205 71 -204 215 -349 421 -422 l80 -28 879 -5 879 -5 2043
-3060 c1526 -2286 2059 -3077 2106 -3125 75 -78 155 -129 263 -167 72 -25 93
-28 210 -28 117 0 138 3 210 28 108 38 188 89 263 167 47 48 580 839 2106
3125 l2043 3060 879 5 879 5 80 28 c206 73 350 218 421 422 25 71 28 94 28
205 0 111 -3 134 -28 205 -71 204 -215 349 -421 422 l-80 28 -1110 0 -1110 0
-80 -27 c-106 -36 -194 -90 -270 -163 -49 -48 -351 -494 -1550 -2290 -819
-1227 -1662 -2489 -1875 -2806 l-386 -577 -1869 2801 c-1525 2285 -1882 2813
-1936 2867 -78 77 -165 131 -274 168 l-80 27 -1085 2 c-873 1 -1097 -1 -1145
-12z"/>
</g>
</svg>
