<?xml version="1.0" standalone="no"?>
<svg version="1.0" xmlns="http://www.w3.org/2000/svg"
 width="1920.000000pt" height="1920.000000pt" viewBox="0 0 1920.000000 1920.000000"
 preserveAspectRatio="xMidYMid meet">

<g transform="translate(0.000000,1920.000000) scale(0.100000,-0.100000)"
fill="#212332" stroke="none">
<path d="M9420 18589 c-586 -65 -1099 -316 -1498 -734 -286 -299 -485 -659
-587 -1059 -55 -216 -69 -342 -69 -591 0 -249 14 -375 69 -591 190 -745 732
-1359 1447 -1638 62 -25 150 -55 196 -68 l82 -23 0 -4277 c0 -2353 -2 -4278
-4 -4278 -7 0 -181 101 -386 223 -1108 661 -2142 1415 -3095 2257 -305 269
-485 440 -542 515 -72 93 -140 232 -160 327 -15 72 -15 83 1 164 37 187 129
426 241 619 69 120 107 175 285 410 267 352 382 533 540 846 145 286 213 470
264 709 52 244 61 334 61 660 0 270 -3 323 -24 460 -30 198 -51 281 -94 366
-46 92 -105 163 -180 220 -213 161 -467 187 -706 72 -66 -32 -101 -57 -166
-121 -91 -91 -131 -155 -169 -268 -35 -104 -42 -211 -22 -328 32 -183 37 -238
37 -406 0 -306 -41 -475 -185 -760 -113 -223 -196 -357 -345 -553 -389 -512
-538 -760 -684 -1138 -135 -346 -191 -605 -191 -884 0 -153 4 -192 28 -305 84
-401 285 -782 571 -1084 78 -83 419 -395 655 -602 1094 -955 2296 -1808 3565
-2531 216 -123 594 -329 668 -364 l37 -18 0 -1346 c0 -1308 1 -1349 20 -1424
28 -110 74 -190 155 -271 81 -81 161 -127 271 -155 144 -37 305 -18 437 52 79
42 193 155 234 233 74 141 67 11 73 1569 l5 1399 165 89 c1416 764 2774 1706
3990 2767 259 227 581 524 669 617 279 298 474 671 557 1069 24 113 28 152 28
305 0 279 -56 539 -190 883 -143 367 -310 649 -639 1077 -186 241 -294 413
-413 658 -85 173 -114 261 -142 425 -16 96 -21 170 -21 295 0 165 5 221 37
403 20 117 13 224 -22 328 -38 113 -78 177 -169 268 -96 95 -200 152 -327 177
-297 61 -591 -82 -727 -353 -41 -80 -63 -166 -92 -361 -21 -137 -24 -190 -24
-460 0 -326 9 -416 61 -660 70 -330 226 -685 482 -1100 84 -136 119 -186 337
-475 192 -255 254 -350 340 -522 89 -181 167 -412 180 -542 14 -130 -76 -336
-215 -493 -49 -57 -401 -379 -620 -569 -925 -802 -1907 -1512 -2962 -2141 -95
-57 -199 -119 -230 -137 l-58 -32 0 4248 0 4248 83 23 c45 13 133 43 195 68
715 279 1257 893 1447 1638 55 216 69 342 69 591 0 249 -14 375 -69 591 -238
935 -1018 1637 -1975 1779 -135 20 -457 28 -580 14z m387 -1330 c43 -6 125
-26 183 -45 434 -143 730 -553 730 -1009 0 -322 -151 -633 -405 -834 -123 -98
-251 -160 -412 -202 -127 -34 -369 -34 -496 0 -368 96 -645 351 -761 701 -144
435 -2 894 364 1182 120 94 332 185 480 206 92 13 225 14 317 1z"/>
</g>
</svg>
