<svg xmlns="http://www.w3.org/2000/svg" viewBox="0 0 1440 320">
  <defs>
    <linearGradient id="sw-gradient-1" x1="0" x2="0" y1="1" y2="0">
      <stop stop-color="#252d3a" offset="0%"/>
      <stop stop-color="#6a7ed6" offset="100%"/>
    </linearGradient>
  </defs>
  <path fill="url(#sw-gradient-1)" fill-opacity="1" d="M0,64L21.8,96C43.6,128,87,192,131,208C174.5,224,218,192,262,197.3C305.5,203,349,245,393,261.3C436.4,277,480,267,524,261.3C567.3,256,611,256,655,218.7C698.2,181,742,107,785,64C829.1,21,873,11,916,53.3C960,96,1004,192,1047,240C1090.9,288,1135,288,1178,277.3C1221.8,267,1265,245,1309,229.3C1352.7,213,1396,203,1418,197.3L1440,192L1440,320L1418.2,320C1396.4,320,1353,320,1309,320C1265.5,320,1222,320,1178,320C1134.5,320,1091,320,1047,320C1003.6,320,960,320,916,320C872.7,320,829,320,785,320C741.8,320,698,320,655,320C610.9,320,567,320,524,320C480,320,436,320,393,320C349.1,320,305,320,262,320C218.2,320,175,320,131,320C87.3,320,44,320,22,320L0,320Z"></path>
</svg>