<svg xmlns="http://www.w3.org/2000/svg" version="1.0" width="2304.000000pt" height="2304.000000pt" viewBox="0 0 2304.000000 2304.000000" preserveAspectRatio="xMidYMid meet">
  <g transform="translate(0.000000,2304.000000) scale(0.100000,-0.100000)" stroke="none">
    <path d="M11150 19129 c-1254 -91 -2397 -622 -3354 -1559 -922 -902 -1586 -2108 -1870 -3395 -208 -943 -191 -1914 49 -2895 261 -1065 796 -2103 1503 -2914 34 -39 59 -73 57 -77 -3 -3 -53 -14 -112 -23 -555 -83 -1068 -24 -1563 179 -530 217 -966 573 -1332 1088 -120 168 -362 297 -557 297 -348 -1 -645 -329 -668 -735 -12 -218 65 -603 184 -925 50 -136 172 -380 242 -485 126 -191 320 -402 526 -574 149 -124 138 -119 188 -84 68 49 100 62 234 94 112 28 140 31 223 26 94 -5 254 -38 360 -75 85 -30 171 -76 298 -161 237 -159 432 -255 705 -346 280 -93 481 -121 806 -112 231 7 301 18 447 72 247 93 425 214 581 395 93 108 145 192 235 377 44 91 86 167 93 169 19 8 257 -166 247 -180 -5 -6 -29 -56 -52 -110 -88 -201 -229 -406 -386 -561 -221 -219 -513 -372 -838 -441 -149 -32 -466 -44 -647 -25 -225 23 -498 89 -739 178 -163 60 -426 195 -580 298 -172 115 -211 136 -332 176 -110 37 -253 49 -339 29 -229 -54 -350 -241 -366 -565 -5 -102 6 -284 22 -360 3 -15 -8 -30 -43 -56 -39 -29 -51 -46 -66 -95 -54 -170 -15 -365 105 -521 98 -126 269 -188 367 -132 l37 22 70 -72 c39 -40 71 -77 73 -82 2 -5 -6 -25 -18 -45 -19 -29 -21 -44 -16 -86 35 -262 321 -494 587 -475 76 5 167 42 195 79 l18 24 100 -41 c56 -23 125 -50 154 -59 55 -19 58 -25 41 -75 -10 -27 -7 -39 16 -87 32 -66 110 -146 186 -191 216 -129 565 -148 785 -43 80 39 157 100 173 136 l11 29 275 0 275 0 0 -28 c0 -19 13 -41 45 -73 159 -159 504 -176 790 -40 49 24 118 64 151 89 86 66 174 184 174 236 0 15 16 25 83 46 112 37 399 151 469 186 l57 29 15 -29 c10 -18 33 -36 66 -50 239 -103 578 4 852 267 165 159 263 339 283 519 5 43 3 69 -9 97 -9 21 -16 45 -16 53 0 8 32 50 71 92 158 168 355 433 497 668 80 132 83 140 78 186 l-5 47 152 0 152 -1 25 -51 c109 -224 398 -634 599 -849 39 -42 71 -84 71 -92 0 -8 -7 -32 -16 -53 -12 -28 -14 -54 -9 -97 20 -180 118 -360 283 -519 274 -263 613 -370 852 -267 33 14 56 32 66 50 l15 29 57 -29 c70 -35 357 -149 470 -186 66 -21 82 -31 82 -46 0 -52 88 -170 174 -236 33 -25 102 -65 151 -89 286 -136 631 -119 790 40 32 32 45 54 45 73 l0 28 275 0 275 0 11 -29 c16 -36 93 -97 173 -136 220 -105 569 -86 785 43 76 45 154 125 186 191 23 48 26 60 16 87 -17 50 -14 56 42 75 28 9 99 36 156 60 l103 43 24 -28 c56 -67 202 -96 326 -67 235 55 425 250 454 464 5 42 3 56 -19 93 l-26 44 72 74 72 74 37 -22 c98 -56 269 6 367 132 120 156 159 351 105 521 -15 49 -27 66 -66 95 -35 26 -46 41 -43 56 16 76 27 258 22 360 -16 324 -137 511 -366 565 -86 20 -229 8 -339 -29 -121 -40 -160 -61 -332 -176 -154 -103 -417 -238 -580 -298 -241 -89 -514 -155 -739 -178 -181 -19 -498 -7 -647 25 -325 69 -617 222 -838 441 -157 155 -298 360 -386 561 -23 54 -51 109 -62 120 l-19 21 128 90 128 90 23 -31 c13 -17 56 -98 96 -181 82 -171 137 -258 229 -365 156 -181 334 -302 581 -395 146 -54 216 -65 447 -72 325 -9 526 19 806 112 273 91 468 187 705 346 127 85 213 131 298 161 106 37 266 70 360 75 83 5 111 2 223 -26 134 -32 166 -45 234 -94 50 -35 39 -40 188 84 206 172 400 383 526 574 70 105 192 349 242 485 119 322 196 707 184 925 -23 406 -320 734 -668 735 -195 0 -437 -129 -557 -297 -170 -240 -404 -497 -582 -640 -389 -313 -805 -512 -1260 -603 -244 -49 -308 -55 -585 -55 -253 1 -399 13 -554 46 l-50 10 107 122 c971 1103 1566 2484 1692 3922 27 313 23 771 -11 1095 -135 1307 -704 2611 -1594 3655 -157 184 -525 553 -699 701 -553 470 -1142 818 -1779 1051 -378 138 -792 232 -1217 278 -174 19 -655 27 -830 14z m2346 -7593 c196 -52 398 -258 529 -539 127 -273 172 -575 127 -842 -93 -541 -461 -967 -784 -907 -247 46 -488 319 -613 694 -41 125 -62 226 -76 366 -32 308 81 705 271 962 166 222 358 316 546 266z m-3632 -55 c137 -67 270 -222 371 -433 181 -378 207 -761 78 -1163 -67 -209 -165 -384 -286 -512 -126 -133 -241 -189 -370 -180 -320 21 -651 539 -683 1070 -25 408 169 914 437 1137 110 91 184 120 299 117 74 -2 95 -6 154 -36z"/>
  </g>
</svg>