<svg xmlns="http://www.w3.org/2000/svg" width="364.502" height="483.521" viewBox="0 0 364.502 483.521">
  <path id="octopus" d="M355.164,308.288c-12.245-6.408-25.721,1.044-31.085,6.507a31.623,31.623,0,0,1-25.061,9.343,32.175,32.175,0,0,1-13.08-4.067,31.8,31.8,0,0,1-10.178-9.233,30.125,30.125,0,0,1-1.781-2.924,170.965,170.965,0,0,0,67.995-137.077C341.875,76.176,264.46-.656,169.9,0,75.92.663,0,77.122,0,171.309A171.356,171.356,0,0,0,80.525,316.675a38.205,38.205,0,0,1-.846,4.518,31.393,31.393,0,0,1-6.221,12.256,30.526,30.526,0,0,1-10.827,8.4,32.734,32.734,0,0,1-3.2,1.319c-.1,0-.1,0-.187.088l-1.044.286a32.425,32.425,0,0,1-13.465.945c-7.529-1.132-27.974-1.891-33.437,12.069-4.99,12.816,5.463,22.621,16.3,26.017,1.979.66,3.957,1.132,6.023,1.6a25.756,25.756,0,0,0,4.518,1.033,73.1,73.1,0,0,0,11.212.846A71.135,71.135,0,0,0,69.8,383.042c.088,0,.088,0,.176-.1.1,0,.1,0,.187-.088.945-.286,1.979-.572,2.924-.945a72.852,72.852,0,0,0,24.49-14.333,41.215,41.215,0,0,0,4.43-4.617q1.541-1.667,3.012-3.4c.473-.561.846-1.132,1.319-1.693.088-.1.088-.187.187-.286a68.081,68.081,0,0,0,5.837-8.859.1.1,0,0,1,.1-.1,1.119,1.119,0,0,1,2.066.846c-.088.2-.088.286-.187.473A137.531,137.531,0,0,1,95.5,387.472a143.338,143.338,0,0,1-23.061,25.27c-9.321,7.914-12.805,21.3-6.5,31.766s19.961,13.849,29.568,6.32A182.078,182.078,0,0,0,157.39,359.85c.473-1.7,1.132-4.056,1.693-6.507a1.483,1.483,0,0,1,2.924.286c.088,2.165.088,4.331.088,6.408a138.847,138.847,0,0,1-12.146,54.684,140.186,140.186,0,0,1-17.807,29.227c-7.628,9.519-8.376,23.379-.187,32.426s22.236,9.8,30.227.561a182.166,182.166,0,0,0,28.073-44.022A180.1,180.1,0,0,0,206.27,360.7v-5.661a1.159,1.159,0,0,1,2.253-.374l1.517,5.474a138.3,138.3,0,0,1,3.012,42.6,135.121,135.121,0,0,1-7.156,33.47c-4.056,11.508-.2,24.9,10.552,30.645s24.193,1.792,28.622-9.53a181.76,181.76,0,0,0,10.167-95.5c-.66-4.342-1.594-8.574-2.539-12.827a1.151,1.151,0,0,1,1.88-1.121,75.144,75.144,0,0,0,10.926,7.727,72.216,72.216,0,0,0,30.139,9.332,72.452,72.452,0,0,0,64.983-30.26c6.694-8.958,4.617-21.115-5.452-26.4Zm-244.6-110.763a21.379,21.379,0,1,1,14.145-8.271A21.357,21.357,0,0,1,110.565,197.525Zm152.29-21.214A21.39,21.39,0,1,1,277,168.036a21.357,21.357,0,0,1-14.141,8.274Z" transform="translate(0 0)" fill="currentColor"/>
</svg>